<svg id="svg" version="1.1" xmlns="http://www.w3.org/2000/svg" xmlns:xlink="http://www.w3.org/1999/xlink" width="400"
  height="185.33333333333334" viewBox="0, 0, 400,185.33333333333334">
  <g id="svgg">
    <path id="path0"
      d="M236.158 35.892 C 235.947 36.160,235.773 36.473,235.771 36.587 C 235.624 48.234,235.812 75.717,236.042 76.163 L 236.321 76.702 239.786 76.766 C 244.074 76.846,244.787 76.795,244.975 76.396 C 245.055 76.227,245.171 72.294,245.233 67.655 L 245.345 59.222 245.935 57.800 C 246.259 57.019,246.526 56.310,246.527 56.225 C 246.532 55.863,248.354 54.347,249.126 54.063 C 251.549 53.170,253.990 54.570,254.730 57.275 C 254.828 57.632,254.961 62.070,255.026 67.137 C 255.112 73.850,255.203 76.409,255.363 76.568 C 255.518 76.723,256.790 76.791,259.698 76.798 L 263.813 76.809 264.256 76.294 L 264.699 75.780 264.641 65.462 L 264.584 55.144 264.003 53.136 C 263.684 52.032,263.304 51.031,263.158 50.912 C 263.012 50.793,262.698 50.409,262.458 50.060 C 261.881 49.218,261.019 48.406,260.334 48.059 C 260.028 47.904,259.649 47.665,259.492 47.528 C 258.567 46.720,253.325 46.321,250.973 46.878 C 249.963 47.118,248.385 48.068,247.213 49.143 C 245.192 50.997,244.985 50.376,245.145 42.919 C 245.259 37.557,245.239 36.707,244.983 36.098 L 244.690 35.403 240.616 35.403 L 236.542 35.403 236.158 35.892 M214.365 37.566 C 213.243 37.658,211.423 38.014,211.214 38.182 C 211.112 38.263,210.484 38.497,209.819 38.701 C 207.543 39.400,205.131 41.329,204.070 43.300 C 203.747 43.901,203.413 44.478,203.329 44.582 C 203.245 44.686,203.073 45.658,202.947 46.741 C 202.513 50.477,203.356 53.944,205.152 55.809 C 205.428 56.095,205.778 56.460,205.931 56.620 C 206.542 57.258,207.554 57.992,208.445 58.441 C 208.962 58.702,209.489 59.042,209.618 59.197 C 209.747 59.352,210.258 59.614,210.754 59.779 C 211.251 59.944,211.849 60.228,212.084 60.410 C 212.319 60.593,212.970 60.892,213.531 61.074 C 214.092 61.256,214.759 61.549,215.014 61.725 C 215.269 61.900,215.853 62.216,216.311 62.426 C 219.687 63.971,220.274 67.179,217.477 68.796 L 216.404 69.416 213.809 69.403 C 211.689 69.393,211.011 69.320,210.102 69.006 C 209.490 68.795,208.289 68.483,207.433 68.313 C 206.577 68.143,205.391 67.758,204.797 67.459 C 202.672 66.386,202.595 66.501,202.595 70.740 C 202.595 75.100,202.647 75.216,204.873 75.809 C 205.710 76.032,206.583 76.334,206.813 76.481 C 208.106 77.306,218.602 77.298,219.891 76.471 C 220.114 76.328,220.797 76.069,221.409 75.896 C 222.756 75.515,224.405 74.474,225.728 73.167 C 227.249 71.664,227.357 71.523,227.811 70.436 C 228.045 69.875,228.348 69.284,228.485 69.122 C 229.340 68.109,229.231 62.785,228.311 60.657 C 227.705 59.255,225.010 56.163,224.394 56.163 C 224.260 56.163,223.942 55.970,223.688 55.735 C 223.434 55.499,222.775 55.114,222.225 54.880 C 221.674 54.646,221.092 54.339,220.932 54.198 C 220.772 54.057,220.153 53.774,219.555 53.568 C 218.958 53.363,218.338 53.077,218.178 52.933 C 218.018 52.788,217.428 52.491,216.867 52.271 C 216.307 52.052,215.681 51.731,215.477 51.560 C 215.273 51.388,214.779 51.081,214.378 50.878 C 212.185 49.768,212.049 46.580,214.148 45.465 C 215.393 44.805,220.469 45.032,221.931 45.815 C 222.390 46.060,225.383 46.890,225.821 46.893 C 226.049 46.895,226.297 46.575,226.599 45.893 C 226.843 45.342,227.122 44.841,227.219 44.781 C 227.316 44.721,227.498 44.234,227.623 43.698 C 227.748 43.163,228.049 42.300,228.290 41.780 C 228.852 40.573,228.859 40.613,227.971 39.875 C 227.441 39.435,226.798 39.145,225.796 38.893 C 225.014 38.697,223.916 38.381,223.355 38.192 C 221.649 37.616,217.367 37.318,214.365 37.566 M36.001 38.894 L 35.394 39.217 35.401 81.404 C 35.408 125.341,35.394 124.600,36.203 124.817 C 36.869 124.995,44.795 124.945,45.285 124.758 C 45.888 124.529,46.154 123.696,46.154 122.035 C 46.154 120.447,45.809 120.112,44.170 120.111 C 43.052 120.110,42.146 119.582,41.787 118.723 C 41.558 118.174,41.520 112.903,41.520 81.368 C 41.520 41.461,41.447 44.207,42.537 43.188 L 43.033 42.725 93.018 42.725 C 120.509 42.725,143.238 42.790,143.525 42.870 C 144.165 43.049,144.754 44.225,144.760 45.339 C 144.762 45.818,144.920 46.331,145.188 46.729 L 145.612 47.359 147.962 47.410 L 150.311 47.462 150.689 46.723 C 151.027 46.060,151.066 45.637,151.066 42.653 L 151.066 39.323 150.577 38.938 L 150.089 38.554 93.348 38.562 C 39.711 38.569,36.575 38.587,36.001 38.894 M283.318 46.705 C 280.578 46.911,279.218 47.173,277.016 47.923 C 274.639 48.732,274.443 49.140,275.476 51.132 C 275.828 51.809,276.223 52.754,276.355 53.232 C 276.796 54.835,277.415 54.878,281.094 53.558 C 283.581 52.666,287.087 52.836,288.273 53.906 C 290.607 56.012,289.734 58.202,286.562 58.199 C 283.933 58.197,278.145 59.033,277.016 59.577 C 276.506 59.823,275.795 60.144,275.436 60.291 C 274.595 60.634,272.600 62.627,272.297 63.425 C 272.168 63.764,271.854 64.557,271.597 65.187 C 270.305 68.369,272.148 74.294,274.866 75.690 C 275.233 75.879,275.840 76.241,276.216 76.495 C 277.427 77.314,284.127 77.299,285.073 76.475 C 285.229 76.339,285.771 76.047,286.277 75.827 C 286.783 75.606,287.464 75.158,287.790 74.831 C 289.336 73.278,289.906 72.921,290.408 73.193 C 291.029 73.530,291.734 74.428,292.192 75.462 C 292.764 76.757,292.709 76.738,295.925 76.738 L 298.585 76.738 298.976 76.189 C 299.363 75.644,299.366 75.557,299.312 65.670 C 299.255 54.992,299.323 55.911,298.320 52.350 C 298.175 51.833,297.847 51.214,297.591 50.974 C 297.336 50.734,297.127 50.451,297.127 50.346 C 297.127 49.569,293.685 47.368,291.844 46.967 C 290.389 46.651,285.893 46.513,283.318 46.705 M323.573 46.706 C 322.302 46.937,321.822 47.132,320.667 47.883 C 319.558 48.604,319.561 48.602,318.662 49.553 C 317.565 50.714,316.321 50.220,315.697 48.377 C 315.244 47.037,314.898 46.919,311.365 46.906 C 308.734 46.896,307.762 47.046,307.467 47.509 C 307.390 47.630,307.326 57.000,307.324 68.331 L 307.322 88.933 307.971 89.503 L 308.621 90.073 312.059 90.065 C 315.669 90.056,316.595 89.891,316.857 89.210 C 316.928 89.028,316.967 85.772,316.944 81.974 C 316.905 75.537,316.925 75.045,317.238 74.699 C 317.697 74.192,318.290 74.234,318.828 74.810 C 319.075 75.075,319.768 75.555,320.368 75.876 C 320.968 76.197,321.677 76.585,321.944 76.738 C 322.724 77.186,327.769 77.132,328.638 76.666 C 328.994 76.475,329.611 76.155,330.007 75.955 C 331.002 75.454,332.466 74.045,333.040 73.037 C 333.303 72.575,333.664 72.030,333.842 71.826 C 334.021 71.622,334.310 70.956,334.486 70.345 C 334.662 69.735,334.966 68.929,335.161 68.555 C 336.133 66.690,336.111 56.235,335.131 54.588 C 334.949 54.282,334.652 53.575,334.471 53.017 C 334.290 52.460,333.904 51.676,333.614 51.275 C 333.324 50.875,333.086 50.455,333.085 50.343 C 333.084 50.057,331.367 48.193,331.106 48.193 C 330.987 48.193,330.632 47.976,330.317 47.710 C 329.233 46.798,325.841 46.293,323.573 46.706 M353.012 46.700 C 351.481 46.880,350.231 47.199,349.692 47.546 C 349.479 47.684,348.856 47.972,348.307 48.187 C 347.407 48.539,347.031 48.813,345.932 49.918 C 345.748 50.103,345.327 50.526,344.995 50.858 C 344.664 51.191,344.393 51.546,344.393 51.648 C 344.393 51.750,344.145 52.162,343.841 52.562 C 343.538 52.962,343.125 53.832,342.924 54.495 C 342.723 55.158,342.367 56.325,342.134 57.090 C 341.557 58.983,341.502 65.177,342.050 66.543 C 342.234 67.002,342.566 67.974,342.788 68.703 C 343.010 69.433,343.327 70.183,343.492 70.372 C 343.657 70.560,343.929 70.983,344.096 71.313 C 344.453 72.017,346.569 74.100,347.381 74.544 C 347.691 74.714,348.091 74.986,348.271 75.149 C 348.451 75.312,349.132 75.624,349.785 75.843 C 350.439 76.062,351.140 76.348,351.344 76.479 C 352.702 77.350,362.812 77.299,364.788 76.412 C 365.244 76.207,366.078 75.908,366.642 75.747 C 367.902 75.386,368.119 74.824,368.119 71.907 C 368.119 69.827,367.800 68.809,367.226 69.058 C 367.054 69.132,366.205 69.383,365.338 69.615 C 364.472 69.846,363.346 70.173,362.836 70.339 C 362.163 70.560,361.168 70.648,359.205 70.660 L 356.501 70.678 355.034 69.985 C 352.657 68.860,351.422 67.164,351.715 65.427 C 351.959 63.986,351.537 64.052,361.178 63.948 C 367.306 63.882,369.830 63.794,369.982 63.642 C 370.378 63.245,370.118 57.433,369.631 55.792 C 369.404 55.028,369.091 53.964,368.937 53.429 C 368.782 52.894,368.592 52.456,368.514 52.456 C 368.436 52.456,368.193 52.143,367.973 51.761 C 366.720 49.577,363.695 47.526,360.919 46.978 C 359.258 46.650,354.781 46.493,353.012 46.700 M50.991 51.928 C 50.627 52.972,50.711 136.972,51.076 137.494 L 51.365 137.905 108.092 137.905 C 170.072 137.905,165.922 137.977,166.179 136.910 C 166.232 136.693,166.252 117.514,166.223 94.290 L 166.172 52.064 165.709 51.708 C 165.254 51.359,164.172 51.352,108.220 51.348 L 51.195 51.344 50.991 51.928 M358.816 53.208 C 360.893 54.121,362.093 57.020,360.857 58.139 C 360.300 58.644,352.885 58.767,352.347 58.280 C 351.068 57.123,352.410 53.857,354.462 53.130 C 355.647 52.711,357.770 52.749,358.816 53.208 M323.126 54.045 C 325.270 54.776,326.307 57.282,326.301 61.724 C 326.293 67.130,324.859 69.509,321.606 69.509 C 318.066 69.509,316.332 65.337,317.152 58.795 C 317.636 54.931,320.063 53.002,323.126 54.045 M158.908 56.624 C 160.264 57.190,160.148 53.648,160.148 94.672 C 160.148 134.921,160.208 132.676,159.129 133.086 C 158.092 133.480,58.368 133.329,57.833 132.932 C 56.890 132.234,56.926 133.748,56.916 94.625 C 56.905 53.342,56.778 56.980,58.241 56.558 C 59.376 56.230,158.122 56.295,158.908 56.624 M90.454 62.170 C 90.199 62.306,89.661 62.476,89.258 62.549 C 88.355 62.712,87.327 63.224,86.857 63.743 C 86.663 63.958,86.394 64.133,86.259 64.133 C 86.124 64.133,85.872 64.363,85.698 64.643 C 85.524 64.924,85.194 65.361,84.964 65.616 C 83.456 67.290,83.535 72.875,85.088 74.393 C 85.389 74.687,85.635 75.041,85.635 75.179 C 85.635 75.318,85.870 75.552,86.158 75.701 C 86.446 75.850,86.799 76.114,86.943 76.287 C 88.089 77.668,92.467 78.088,94.933 77.055 C 96.113 76.560,98.128 74.573,98.449 73.587 C 98.565 73.230,98.867 72.526,99.120 72.021 C 99.755 70.755,99.665 68.581,98.921 67.193 C 98.648 66.684,98.424 66.170,98.424 66.051 C 98.424 65.339,95.666 63.059,94.319 62.658 C 93.570 62.434,92.715 62.175,92.419 62.080 C 91.684 61.846,91.006 61.877,90.454 62.170 M288.580 62.997 C 290.114 63.427,290.090 66.879,288.540 68.813 C 287.363 70.282,284.395 71.213,283.170 70.498 C 279.858 68.565,280.577 64.567,284.431 63.486 C 286.714 62.846,287.648 62.736,288.580 62.997 M122.655 76.395 C 122.371 76.500,121.913 76.792,121.635 77.042 C 119.847 78.656,116.667 82.009,116.330 82.634 C 116.238 82.806,115.862 83.288,115.495 83.705 C 115.129 84.122,114.537 84.855,114.180 85.334 C 113.338 86.465,112.269 87.867,110.559 90.083 C 110.205 90.542,109.795 91.174,109.648 91.488 C 109.502 91.802,109.256 92.164,109.102 92.291 C 108.949 92.419,108.579 92.954,108.280 93.481 C 107.982 94.008,107.561 94.598,107.344 94.792 C 107.128 94.987,106.951 95.250,106.951 95.377 C 106.951 95.505,106.680 95.946,106.348 96.357 C 105.364 97.580,104.171 99.296,104.171 99.488 C 104.171 99.587,103.976 99.878,103.739 100.134 C 103.501 100.390,103.118 100.966,102.887 101.412 C 102.657 101.859,102.319 102.391,102.136 102.595 C 101.954 102.799,101.678 103.216,101.524 103.522 C 101.369 103.828,101.067 104.237,100.853 104.431 C 100.639 104.625,100.463 104.888,100.463 105.015 C 100.463 105.142,100.130 105.689,99.722 106.232 C 99.314 106.775,98.981 107.325,98.981 107.455 C 98.981 108.128,96.879 109.851,96.411 109.562 C 96.058 109.343,94.963 107.711,94.452 106.644 C 94.201 106.118,93.897 105.627,93.777 105.553 C 93.657 105.478,93.321 104.893,93.030 104.252 C 92.740 103.610,92.415 103.032,92.309 102.967 C 92.203 102.901,92.003 102.575,91.864 102.243 C 91.725 101.910,91.320 101.256,90.965 100.790 C 90.609 100.325,90.264 99.727,90.197 99.462 C 90.131 99.197,90.002 98.981,89.912 98.981 C 89.822 98.981,89.517 98.584,89.235 98.100 C 88.953 97.616,88.494 96.928,88.217 96.571 C 87.939 96.214,87.656 95.734,87.587 95.505 C 87.519 95.276,87.387 95.088,87.293 95.088 C 87.199 95.088,86.900 94.734,86.627 94.300 C 84.767 91.339,81.198 88.236,80.095 88.621 C 79.525 88.820,77.479 91.195,77.479 91.658 C 77.479 91.776,77.283 92.056,77.044 92.281 C 76.804 92.506,76.452 93.151,76.261 93.714 C 76.069 94.276,75.782 94.879,75.622 95.052 C 75.462 95.225,75.132 95.908,74.887 96.571 C 74.643 97.234,74.297 97.984,74.119 98.239 C 73.941 98.494,73.699 99.078,73.583 99.537 C 73.466 99.995,73.177 100.705,72.941 101.114 C 72.704 101.524,72.373 102.331,72.205 102.909 C 72.037 103.486,71.752 104.152,71.572 104.389 C 71.391 104.626,71.095 105.378,70.914 106.060 C 70.734 106.742,70.432 107.587,70.244 107.937 C 70.057 108.287,69.764 109.064,69.594 109.662 C 69.425 110.261,69.127 111.027,68.933 111.365 C 68.739 111.704,68.444 112.538,68.278 113.219 C 68.111 113.900,67.825 114.750,67.642 115.107 C 67.459 115.463,67.122 116.423,66.895 117.238 C 66.667 118.054,66.338 119.013,66.163 119.370 C 65.988 119.727,65.706 120.560,65.538 121.221 C 65.369 121.882,65.095 122.631,64.929 122.884 C 64.762 123.138,64.439 124.099,64.211 125.019 C 63.982 125.939,63.739 126.868,63.671 127.083 C 63.574 127.390,63.641 127.499,63.979 127.590 C 64.819 127.815,152.643 127.728,152.869 127.502 C 153.106 127.265,152.929 126.663,152.392 125.879 C 152.209 125.612,151.906 124.977,151.719 124.467 C 151.532 123.957,151.239 123.359,151.067 123.137 C 150.896 122.915,150.606 122.331,150.423 121.839 C 150.239 121.348,149.940 120.778,149.758 120.575 C 149.576 120.371,149.282 119.829,149.104 119.370 C 148.926 118.911,148.641 118.327,148.470 118.072 C 148.299 117.817,147.647 116.566,147.020 115.292 C 146.393 114.018,145.758 112.766,145.609 112.512 C 145.459 112.257,145.170 111.673,144.965 111.214 C 144.760 110.755,144.423 110.088,144.215 109.731 C 144.007 109.374,143.706 108.791,143.545 108.434 C 143.384 108.077,142.929 107.201,142.532 106.487 C 142.136 105.774,141.523 104.594,141.170 103.865 C 140.816 103.137,140.443 102.489,140.341 102.425 C 140.238 102.362,139.981 101.849,139.771 101.286 C 139.560 100.722,139.238 100.102,139.056 99.906 C 138.874 99.711,138.574 99.131,138.389 98.617 C 138.205 98.103,137.989 97.683,137.910 97.683 C 137.831 97.683,137.498 97.162,137.170 96.525 C 136.842 95.887,136.211 94.699,135.768 93.883 C 135.325 93.068,134.793 92.060,134.586 91.645 C 134.379 91.229,134.037 90.670,133.827 90.402 C 133.616 90.135,133.278 89.540,133.074 89.080 C 132.871 88.621,132.614 88.189,132.502 88.120 C 132.390 88.051,132.058 87.463,131.764 86.814 C 131.470 86.166,131.156 85.635,131.066 85.635 C 130.976 85.635,130.719 85.239,130.493 84.754 C 130.268 84.270,129.929 83.706,129.740 83.501 C 129.551 83.295,129.275 82.835,129.125 82.477 C 128.976 82.120,128.671 81.662,128.448 81.461 C 128.225 81.259,127.873 80.760,127.666 80.352 C 127.459 79.944,127.051 79.337,126.759 79.002 C 126.467 78.667,126.228 78.315,126.228 78.219 C 126.228 77.241,123.761 75.982,122.655 76.395 M211.956 100.177 C 206.818 101.225,203.485 104.443,202.939 108.882 C 202.175 115.097,204.678 119.070,211.307 122.167 C 211.562 122.286,212.479 122.710,213.346 123.110 C 214.863 123.809,215.202 123.981,217.070 124.999 C 220.317 126.770,219.972 130.284,216.457 131.232 C 214.239 131.831,208.831 131.280,206.582 130.226 C 206.071 129.987,205.361 129.731,205.005 129.656 C 204.648 129.581,204.111 129.394,203.811 129.241 C 202.730 128.689,202.579 129.218,202.637 133.343 L 202.688 136.886 203.485 137.289 C 203.924 137.510,204.383 137.772,204.505 137.871 C 204.799 138.109,206.943 138.560,209.951 139.017 C 219.943 140.535,228.084 136.262,228.962 129.039 C 229.204 127.052,228.922 123.604,228.477 123.094 C 228.336 122.932,228.044 122.395,227.829 121.901 C 227.257 120.586,224.888 118.388,223.025 117.444 C 222.493 117.175,222.057 116.885,222.057 116.801 C 222.057 116.717,221.548 116.494,220.925 116.305 C 220.303 116.117,219.614 115.828,219.396 115.664 C 219.178 115.500,218.435 115.131,217.745 114.844 C 217.056 114.556,216.443 114.243,216.384 114.148 C 216.325 114.053,215.847 113.781,215.321 113.543 C 210.722 111.469,212.492 106.413,217.562 107.144 C 220.284 107.537,222.872 108.116,223.661 108.510 C 224.155 108.756,224.900 109.005,225.316 109.063 L 226.072 109.169 226.745 107.827 C 227.114 107.089,227.596 105.902,227.815 105.189 C 228.034 104.476,228.306 103.779,228.419 103.640 C 229.095 102.811,228.524 101.889,227.064 101.455 C 226.505 101.289,225.754 101.002,225.396 100.818 C 223.418 99.799,215.628 99.428,211.956 100.177 M251.824 108.559 C 251.527 108.609,251.110 108.761,250.897 108.898 C 250.684 109.034,250.031 109.283,249.447 109.451 C 248.416 109.747,247.416 110.432,246.350 111.573 C 245.266 112.734,244.168 112.526,243.634 111.060 C 243.017 109.368,242.604 109.186,239.363 109.180 C 235.288 109.173,235.783 107.139,235.761 123.989 L 235.743 138.154 236.175 138.394 C 236.938 138.817,244.527 138.742,244.920 138.308 C 245.195 138.005,245.228 137.194,245.235 130.662 C 245.245 122.285,245.324 121.292,246.152 119.218 C 247.704 115.328,252.071 114.618,254.077 117.930 C 254.952 119.373,255.043 120.501,255.047 129.893 L 255.051 138.285 255.526 138.466 C 256.188 138.718,263.374 138.699,264.106 138.443 L 264.690 138.240 264.690 128.104 C 264.690 119.682,264.643 117.796,264.412 116.954 C 264.260 116.397,264.004 115.399,263.845 114.736 C 263.672 114.018,263.335 113.256,263.012 112.850 C 262.714 112.475,262.372 111.954,262.252 111.691 C 262.133 111.429,261.970 111.214,261.891 111.214 C 261.811 111.214,261.364 110.883,260.896 110.478 C 260.429 110.074,259.643 109.623,259.148 109.476 C 258.654 109.329,257.968 109.060,257.623 108.879 C 256.994 108.546,253.162 108.335,251.824 108.559 M282.854 108.605 C 282.396 108.683,281.793 108.840,281.515 108.955 C 281.237 109.069,280.444 109.254,279.754 109.364 C 277.701 109.694,276.673 109.957,276.182 110.278 C 275.927 110.444,275.551 110.672,275.348 110.784 C 274.835 111.066,274.907 112.256,275.500 113.292 C 275.750 113.729,276.102 114.546,276.282 115.107 C 276.799 116.714,277.602 117.143,278.848 116.480 C 279.317 116.230,280.348 115.897,281.139 115.740 C 281.929 115.583,282.891 115.334,283.275 115.188 C 286.217 114.065,290.008 116.388,289.442 118.965 C 289.190 120.113,288.952 120.183,284.738 120.345 C 281.707 120.461,280.696 120.566,279.889 120.850 C 279.328 121.047,278.353 121.328,277.723 121.474 C 274.074 122.323,271.428 125.631,271.218 129.609 C 271.124 131.374,272.099 135.115,272.873 135.959 C 274.431 137.660,275.173 138.184,276.662 138.637 C 278.583 139.220,280.430 139.369,282.294 139.090 C 285.355 138.632,285.897 138.374,289.051 135.874 C 290.314 134.873,291.333 135.447,292.211 137.653 C 292.453 138.261,292.634 138.443,293.084 138.533 C 294.087 138.734,298.093 138.657,298.736 138.424 L 299.351 138.202 299.351 128.491 L 299.351 118.781 298.789 116.346 C 298.477 114.996,298.080 113.745,297.898 113.536 C 297.718 113.329,297.375 112.868,297.137 112.512 C 296.899 112.155,296.340 111.571,295.893 111.214 C 295.447 110.857,294.871 110.385,294.612 110.164 C 294.354 109.944,293.708 109.662,293.179 109.537 C 292.649 109.412,291.881 109.137,291.474 108.926 C 290.671 108.510,284.727 108.289,282.854 108.605 M323.633 108.602 C 323.378 108.671,322.711 108.952,322.150 109.227 C 321.589 109.502,321.045 109.728,320.940 109.729 C 320.835 109.730,320.140 110.315,319.396 111.029 C 317.943 112.422,317.950 112.419,316.927 112.135 C 316.257 111.949,316.023 111.577,315.552 109.955 C 315.316 109.142,309.131 108.742,307.915 109.461 L 307.322 109.811 307.322 130.633 L 307.322 151.455 308.002 151.740 C 308.975 152.146,316.508 152.045,316.785 151.622 C 316.897 151.451,316.961 148.693,316.952 144.486 C 316.943 140.714,316.941 137.481,316.948 137.303 C 316.983 136.390,317.825 136.074,318.553 136.700 C 318.849 136.955,319.151 137.164,319.224 137.164 C 319.297 137.164,319.631 137.402,319.966 137.693 C 320.617 138.259,321.567 138.609,323.873 139.132 L 325.318 139.460 327.623 138.882 C 330.436 138.176,332.069 137.031,333.112 135.032 C 333.325 134.625,333.649 134.124,333.833 133.920 C 334.016 133.716,334.308 133.049,334.481 132.437 C 334.654 131.826,334.946 131.075,335.129 130.769 C 336.144 129.073,336.131 118.660,335.112 116.711 C 334.891 116.287,334.586 115.524,334.436 115.014 C 334.286 114.504,334.015 113.920,333.833 113.716 C 333.652 113.513,333.366 113.050,333.198 112.688 C 331.884 109.849,326.905 107.722,323.633 108.602 M323.064 116.030 C 326.215 116.933,327.514 125.292,325.198 129.770 C 323.841 132.394,319.923 132.304,318.174 129.609 C 316.084 126.389,316.664 118.751,319.147 116.812 C 320.439 115.803,321.521 115.587,323.064 116.030 M288.977 125.304 C 289.485 125.576,289.774 126.858,289.635 128.223 C 289.344 131.072,287.649 132.527,284.615 132.529 C 279.778 132.532,279.992 126.467,284.871 125.312 C 285.827 125.086,288.559 125.081,288.977 125.304 "
      stroke="none" fill="#000" fill-rule="evenodd"></path>
  </g>
</svg>