<svg xmlns="http://www.w3.org/2000/svg" xmlns:xlink="http://www.w3.org/1999/xlink" id="svg" width="400" height="400" version="1.1" viewBox="0 0 350 350"><g id="svgg"><path id="path0" fill="#090708" fill-rule="evenodd" stroke="none" d="M213.600 63.318 L 212.600 63.824 212.378 160.612 C 212.127 270.334,212.163 268.935,209.442 275.214 C 207.912 278.744,205.718 282.310,203.928 284.176 C 203.308 284.823,202.800 285.481,202.800 285.639 C 202.800 285.905,198.135 290.024,195.103 292.436 C 194.386 293.006,192.810 293.960,191.600 294.556 C 190.390 295.152,188.770 295.990,188.000 296.419 C 187.230 296.848,186.053 297.199,185.385 297.199 C 184.716 297.200,183.497 297.543,182.675 297.962 C 178.630 300.024,167.351 300.054,161.501 298.018 C 159.576 297.348,157.670 296.800,157.266 296.800 C 156.317 296.800,149.301 293.300,148.903 292.628 C 148.736 292.346,147.880 291.661,147.000 291.104 C 146.120 290.547,144.320 288.855,143.000 287.345 C 140.868 284.907,133.242 276.915,130.307 274.044 C 128.342 272.123,125.835 267.463,123.747 261.851 C 121.414 255.582,122.032 238.832,124.821 232.763 C 125.689 230.873,126.400 229.214,126.400 229.076 C 126.400 228.594,129.919 223.394,130.756 222.638 C 131.220 222.219,131.600 221.678,131.600 221.435 C 131.600 221.193,132.694 220.096,134.031 218.997 C 135.368 217.899,136.943 216.538,137.531 215.973 C 139.065 214.500,143.956 211.723,145.600 211.391 C 146.370 211.235,147.990 210.697,149.200 210.194 C 153.129 208.560,158.845 207.870,166.672 208.085 C 173.057 208.261,173.670 208.218,174.019 207.565 C 174.735 206.227,174.508 169.932,173.777 168.889 C 172.666 167.303,156.181 167.931,150.600 169.772 C 149.060 170.280,146.450 171.015,144.800 171.404 C 143.150 171.794,141.131 172.448,140.313 172.858 C 139.495 173.267,137.915 173.798,136.802 174.037 C 135.688 174.276,134.258 174.908,133.624 175.441 C 132.990 175.975,131.782 176.699,130.939 177.051 C 130.096 177.403,128.896 178.121,128.273 178.646 C 127.649 179.171,126.919 179.600,126.651 179.600 C 126.006 179.600,120.975 182.849,119.200 184.411 C 118.430 185.089,116.900 186.459,115.800 187.456 C 114.700 188.453,112.900 189.988,111.800 190.866 C 110.700 191.745,109.260 193.146,108.600 193.981 C 107.940 194.815,106.279 196.826,104.909 198.449 C 100.875 203.228,100.257 204.041,99.507 205.558 C 99.115 206.351,98.391 207.578,97.897 208.285 C 95.934 211.098,94.737 213.243,94.120 215.053 C 93.764 216.097,93.052 217.572,92.537 218.330 C 92.022 219.089,91.403 220.447,91.160 221.348 C 90.917 222.249,90.308 223.800,89.806 224.793 C 89.304 225.787,88.677 227.646,88.413 228.925 C 88.149 230.204,87.602 232.004,87.198 232.925 C 86.793 233.846,86.269 235.680,86.033 237.000 C 83.489 251.228,83.600 250.168,83.600 260.239 C 83.600 268.632,83.704 270.245,84.417 272.969 C 84.867 274.685,85.385 277.644,85.570 279.545 C 85.754 281.445,86.267 283.826,86.711 284.837 C 87.154 285.847,87.824 288.054,88.200 289.742 C 88.575 291.429,89.306 293.434,89.824 294.197 C 90.341 294.960,90.968 296.352,91.216 297.292 C 91.464 298.231,92.170 299.810,92.785 300.800 C 93.400 301.790,94.017 303.092,94.157 303.693 C 94.297 304.294,94.923 305.374,95.547 306.093 C 96.172 306.812,97.164 308.120,97.753 309.000 C 101.761 314.993,104.864 317.810,113.550 323.342 C 115.228 324.411,117.529 325.633,118.664 326.058 C 119.799 326.483,120.938 327.084,121.196 327.395 C 121.453 327.705,122.325 328.168,123.132 328.424 C 123.939 328.680,125.327 329.304,126.215 329.811 C 127.103 330.319,128.922 331.017,130.258 331.363 C 131.593 331.709,133.505 332.450,134.506 333.010 C 135.780 333.722,137.376 334.147,139.818 334.424 C 141.738 334.642,144.138 335.007,145.151 335.234 C 155.730 337.605,167.354 337.878,176.880 335.981 C 180.246 335.310,184.334 334.591,185.965 334.382 C 187.738 334.156,189.910 333.537,191.365 332.843 C 192.704 332.205,194.743 331.381,195.895 331.011 C 197.048 330.641,198.085 330.186,198.200 330.000 C 198.315 329.814,199.352 329.355,200.505 328.980 C 201.657 328.606,202.960 327.982,203.400 327.594 C 203.840 327.206,205.100 326.409,206.200 325.823 C 208.494 324.602,211.540 322.530,212.576 321.487 C 212.965 321.095,213.940 320.434,214.742 320.019 C 216.281 319.222,226.000 309.918,226.000 309.241 C 226.000 309.024,227.054 307.620,228.343 306.123 C 229.631 304.625,231.002 302.770,231.390 302.000 C 231.777 301.230,232.406 300.240,232.787 299.800 C 233.509 298.967,235.312 295.779,237.205 291.986 C 237.813 290.769,238.585 289.545,238.920 289.266 C 239.255 288.988,239.746 287.824,240.010 286.680 C 240.274 285.536,240.918 283.850,241.442 282.934 C 241.965 282.018,242.586 280.308,242.822 279.134 C 243.057 277.960,243.665 276.010,244.174 274.800 C 244.683 273.590,245.406 270.890,245.782 268.800 C 246.157 266.710,246.807 263.380,247.225 261.400 C 248.769 254.094,248.800 252.926,248.813 200.723 C 248.827 143.993,248.671 147.298,251.265 148.628 C 251.999 149.004,253.140 149.750,253.800 150.284 C 255.637 151.773,257.599 153.063,259.800 154.229 C 260.900 154.811,262.160 155.601,262.600 155.983 C 263.040 156.366,264.198 156.987,265.173 157.365 C 266.149 157.743,267.467 158.490,268.104 159.026 C 268.741 159.562,269.658 160.000,270.142 160.000 C 270.626 160.000,272.294 160.610,273.849 161.355 C 275.404 162.100,277.262 162.838,277.978 162.995 C 278.695 163.153,280.238 163.720,281.408 164.255 C 282.577 164.791,285.110 165.504,287.037 165.840 C 288.963 166.176,291.029 166.705,291.629 167.015 C 293.182 167.818,295.836 168.354,300.522 168.811 C 302.765 169.029,305.937 169.496,307.571 169.847 C 310.806 170.543,314.914 170.446,315.706 169.655 C 316.447 168.915,316.802 136.320,316.090 134.488 C 315.383 132.672,313.733 131.800,310.004 131.273 C 308.241 131.023,305.961 130.388,304.902 129.851 C 303.848 129.318,302.180 128.668,301.193 128.407 C 300.207 128.146,298.574 127.408,297.565 126.766 C 296.556 126.125,295.541 125.600,295.310 125.600 C 295.079 125.600,293.974 124.970,292.855 124.200 C 291.735 123.430,290.641 122.800,290.424 122.800 C 289.855 122.800,283.753 117.409,280.108 113.687 C 268.834 102.174,264.838 97.794,262.657 94.555 C 260.710 91.663,258.490 87.944,257.789 86.400 C 257.440 85.630,256.551 83.740,255.814 82.200 C 255.077 80.660,254.345 78.680,254.189 77.800 C 254.032 76.920,253.485 75.390,252.974 74.400 C 252.463 73.410,251.688 70.714,251.253 68.409 C 250.092 62.260,251.977 62.799,231.656 62.806 C 218.709 62.810,214.359 62.934,213.600 63.318"/><path id="path1" fill="#e7275b" fill-rule="evenodd" stroke="none" d="M252.873 62.699 C 248.885 62.824,248.775 62.852,249.604 63.523 C 250.256 64.051,250.651 65.219,251.253 68.409 C 251.688 70.714,252.463 73.410,252.974 74.400 C 253.485 75.390,254.032 76.920,254.189 77.800 C 254.345 78.680,255.077 80.660,255.814 82.200 C 256.551 83.740,257.440 85.630,257.789 86.400 C 259.308 89.748,263.149 95.544,266.057 98.879 C 272.264 105.995,276.901 109.810,273.011 104.600 C 272.519 103.940,271.708 102.590,271.211 101.600 C 270.714 100.610,270.075 99.530,269.791 99.200 C 269.507 98.870,269.059 97.792,268.796 96.804 C 268.533 95.816,267.959 94.504,267.520 93.888 C 266.417 92.338,264.096 85.366,263.165 80.800 C 262.738 78.710,262.040 75.650,261.612 74.000 C 261.185 72.350,260.711 69.327,260.559 67.282 C 260.264 63.313,259.678 62.290,257.811 62.484 C 257.365 62.531,255.143 62.627,252.873 62.699 M316.146 134.246 C 316.467 135.668,316.453 167.441,316.131 168.729 C 315.698 170.460,312.252 170.900,307.525 169.827 C 306.136 169.512,303.084 169.068,300.743 168.839 C 295.886 168.364,293.197 167.826,291.629 167.015 C 291.029 166.705,288.963 166.176,287.037 165.840 C 285.110 165.504,282.577 164.791,281.408 164.255 C 280.238 163.720,278.695 163.153,277.978 162.995 C 277.262 162.838,275.404 162.100,273.849 161.355 C 272.294 160.610,270.626 160.000,270.142 160.000 C 269.658 160.000,268.741 159.562,268.104 159.026 C 267.467 158.490,266.149 157.743,265.173 157.365 C 264.198 156.987,263.040 156.366,262.600 155.983 C 262.160 155.601,260.900 154.811,259.800 154.229 C 257.599 153.063,255.637 151.773,253.800 150.284 C 253.140 149.750,251.999 149.004,251.265 148.628 C 248.671 147.298,248.827 143.993,248.813 200.723 C 248.800 252.926,248.769 254.094,247.225 261.400 C 246.807 263.380,246.157 266.710,245.782 268.800 C 245.406 270.890,244.683 273.590,244.174 274.800 C 243.665 276.010,243.057 277.960,242.822 279.134 C 242.586 280.308,241.965 282.018,241.442 282.934 C 240.918 283.850,240.274 285.536,240.010 286.680 C 239.746 287.824,239.255 288.988,238.920 289.266 C 238.585 289.545,237.813 290.769,237.205 291.986 C 235.312 295.779,233.509 298.967,232.787 299.800 C 232.406 300.240,231.777 301.230,231.390 302.000 C 231.002 302.770,229.631 304.625,228.343 306.123 C 227.054 307.620,226.000 309.024,226.000 309.241 C 226.000 309.918,216.281 319.222,214.742 320.019 C 213.940 320.434,212.965 321.095,212.576 321.487 C 211.540 322.530,208.494 324.602,206.200 325.823 C 205.100 326.409,203.840 327.206,203.400 327.594 C 202.960 327.982,201.657 328.606,200.505 328.980 C 199.352 329.355,198.315 329.814,198.200 330.000 C 198.085 330.186,197.048 330.641,195.895 331.011 C 194.743 331.381,192.704 332.205,191.365 332.843 C 189.910 333.537,187.738 334.156,185.965 334.382 C 184.334 334.591,180.246 335.310,176.880 335.981 C 167.354 337.878,155.730 337.605,145.151 335.234 C 144.138 335.007,141.738 334.642,139.818 334.424 C 137.376 334.147,135.780 333.722,134.506 333.010 C 133.505 332.450,131.593 331.709,130.258 331.363 C 128.922 331.017,127.103 330.319,126.215 329.811 C 125.327 329.304,123.939 328.680,123.132 328.424 C 122.325 328.168,121.453 327.705,121.196 327.395 C 120.938 327.084,119.799 326.483,118.664 326.058 C 116.735 325.336,113.442 323.385,108.350 319.949 C 107.168 319.151,105.244 317.555,104.075 316.402 L 101.950 314.307 102.561 315.768 C 103.099 317.056,110.622 325.600,111.218 325.600 C 111.425 325.600,113.029 326.899,117.200 330.441 C 120.486 333.232,121.584 334.034,122.854 334.574 C 123.594 334.888,124.820 335.607,125.578 336.172 C 126.335 336.737,127.155 337.200,127.399 337.200 C 127.644 337.200,128.714 337.752,129.777 338.426 C 130.841 339.101,132.660 340.008,133.819 340.441 C 134.978 340.875,136.127 341.471,136.371 341.765 C 136.615 342.060,137.667 342.528,138.708 342.806 C 139.748 343.084,141.824 343.837,143.319 344.479 C 144.815 345.121,147.425 345.910,149.119 346.234 C 150.814 346.557,153.142 347.173,154.292 347.602 C 156.899 348.575,172.686 349.792,178.400 349.460 C 189.845 348.797,193.382 348.366,195.574 347.367 C 196.770 346.822,199.101 346.097,200.754 345.755 C 202.408 345.414,204.399 344.814,205.180 344.422 C 205.961 344.030,207.590 343.392,208.800 343.003 C 210.010 342.615,211.276 342.058,211.614 341.765 C 211.951 341.472,213.286 340.764,214.579 340.192 C 215.873 339.620,217.397 338.793,217.966 338.353 C 219.978 336.800,221.818 335.597,223.294 334.870 C 226.108 333.483,238.890 321.107,240.605 318.107 C 240.954 317.498,242.042 315.920,243.023 314.600 C 244.005 313.280,245.156 311.480,245.582 310.600 C 246.008 309.720,246.812 308.386,247.369 307.635 C 247.925 306.885,248.590 305.625,248.846 304.835 C 249.102 304.046,249.668 302.892,250.103 302.271 C 250.539 301.650,251.148 300.303,251.457 299.277 C 251.766 298.251,252.453 296.755,252.984 295.953 C 253.515 295.150,254.312 293.078,254.756 291.347 C 255.200 289.616,256.026 286.400,256.592 284.200 C 260.398 269.409,260.073 275.524,260.273 214.928 C 260.422 169.617,260.536 161.185,261.008 160.793 C 261.586 160.314,264.817 162.050,267.745 164.413 C 270.876 166.941,283.665 173.711,286.718 174.458 C 287.753 174.711,289.274 175.255,290.098 175.666 C 290.921 176.077,293.171 176.779,295.098 177.224 C 297.024 177.670,299.410 178.371,300.400 178.781 C 301.390 179.191,304.180 179.825,306.600 180.189 C 309.020 180.554,311.900 181.098,313.000 181.399 C 317.806 182.714,326.961 183.279,327.920 182.320 C 328.282 181.958,328.400 176.183,328.400 158.782 C 328.400 131.827,328.982 134.573,323.147 133.982 C 321.086 133.773,318.609 133.488,317.643 133.347 L 315.886 133.092 316.146 134.246 M174.121 168.285 C 173.806 168.506,173.770 168.823,174.015 169.211 C 174.517 170.005,174.521 206.627,174.019 207.565 C 173.670 208.218,173.057 208.261,166.672 208.085 C 158.845 207.870,153.129 208.560,149.200 210.194 C 147.990 210.697,146.370 211.235,145.600 211.391 C 143.956 211.723,139.065 214.500,137.531 215.973 C 136.943 216.538,135.368 217.899,134.031 218.997 C 132.694 220.096,131.600 221.193,131.600 221.435 C 131.600 221.678,131.220 222.219,130.756 222.638 C 129.919 223.394,126.400 228.594,126.400 229.076 C 126.400 229.214,125.689 230.873,124.821 232.763 C 122.032 238.832,121.414 255.582,123.747 261.851 C 125.821 267.425,128.479 272.399,130.102 273.744 C 130.596 274.154,131.270 274.875,131.600 275.347 C 131.930 275.819,133.441 277.374,134.958 278.802 L 137.715 281.400 137.439 279.615 C 137.288 278.634,136.702 276.744,136.139 275.415 C 133.427 269.023,133.188 250.930,135.764 246.998 C 136.084 246.511,136.647 245.052,137.017 243.756 C 137.386 242.460,138.097 240.950,138.596 240.400 C 139.095 239.850,139.805 238.746,140.175 237.947 C 141.550 234.972,150.292 226.826,153.216 225.794 C 154.116 225.477,155.355 224.859,155.969 224.422 C 156.908 223.754,161.571 222.283,167.600 220.755 C 168.370 220.559,172.591 220.420,176.979 220.445 C 185.453 220.494,186.986 220.105,186.217 218.101 C 186.098 217.790,186.000 206.753,186.000 193.577 L 186.000 169.618 185.096 169.026 C 184.061 168.348,174.912 167.731,174.121 168.285"/><path id="path2" fill="#5bc3ce" fill-rule="evenodd" stroke="none" d="M203.482 52.497 C 202.845 52.968,202.792 59.198,202.660 149.400 C 202.530 238.361,202.402 249.616,201.507 251.036 C 201.356 251.276,201.046 253.760,200.819 256.557 C 200.397 261.748,200.003 263.200,199.013 263.200 C 198.423 263.200,198.225 263.678,197.820 266.083 C 197.670 266.972,197.174 267.877,196.581 268.343 C 196.037 268.771,195.311 269.794,194.968 270.615 C 194.253 272.327,189.037 277.764,187.720 278.170 C 187.237 278.319,186.724 278.808,186.582 279.257 C 186.439 279.706,185.717 280.326,184.976 280.636 C 184.235 280.945,183.438 281.555,183.205 281.991 C 182.945 282.477,181.894 283.035,180.490 283.434 C 179.231 283.792,177.803 284.499,177.318 285.005 C 176.439 285.923,173.451 286.800,171.201 286.800 C 170.564 286.800,169.196 287.250,168.162 287.800 C 165.319 289.312,155.613 289.311,152.632 287.798 C 151.448 287.197,149.985 286.800,148.958 286.800 C 146.786 286.800,145.417 286.273,143.723 284.786 C 142.980 284.134,142.150 283.600,141.879 283.600 C 141.608 283.600,140.534 282.784,139.493 281.786 C 136.642 279.054,137.136 280.694,140.254 284.317 C 143.566 288.163,145.849 290.421,147.400 291.382 C 148.060 291.791,148.736 292.354,148.903 292.632 C 149.303 293.302,156.322 296.800,157.266 296.800 C 157.670 296.800,159.576 297.348,161.501 298.018 C 167.351 300.054,178.630 300.024,182.675 297.962 C 183.497 297.543,184.716 297.200,185.385 297.199 C 186.053 297.199,187.230 296.848,188.000 296.419 C 188.770 295.990,190.390 295.152,191.600 294.556 C 192.810 293.960,194.386 293.006,195.103 292.436 C 198.135 290.024,202.800 285.905,202.800 285.639 C 202.800 285.481,203.308 284.823,203.928 284.176 C 205.718 282.310,207.912 278.744,209.442 275.214 C 212.163 268.935,212.127 270.334,212.378 160.612 L 212.600 63.824 213.600 63.318 C 214.360 62.933,218.973 62.804,232.800 62.780 C 249.765 62.751,250.913 62.705,249.715 62.109 C 248.324 61.416,248.366 61.560,247.710 55.200 L 247.400 52.200 225.781 52.097 C 208.903 52.016,204.013 52.104,203.482 52.497 M274.256 107.053 C 274.545 107.858,275.063 108.443,279.990 113.531 C 283.655 117.314,289.830 122.800,290.424 122.800 C 290.641 122.800,291.735 123.430,292.855 124.200 C 293.974 124.970,295.079 125.600,295.310 125.600 C 295.541 125.600,296.556 126.125,297.565 126.766 C 298.574 127.408,300.207 128.146,301.193 128.407 C 302.180 128.668,303.848 129.318,304.902 129.851 C 305.971 130.393,308.246 131.024,310.054 131.280 C 312.131 131.573,313.758 132.055,314.596 132.623 C 316.743 134.080,317.466 131.745,315.363 130.142 C 314.830 129.736,314.832 129.388,315.381 127.018 C 315.722 125.551,316.000 124.296,316.000 124.230 C 316.000 124.032,311.570 123.251,309.093 123.013 C 307.825 122.891,306.025 122.509,305.093 122.164 C 304.162 121.819,301.902 121.279,300.072 120.964 C 296.711 120.386,294.594 119.581,294.327 118.781 C 294.247 118.541,292.998 118.198,291.551 118.019 C 290.104 117.839,288.527 117.482,288.046 117.225 C 285.450 115.835,280.245 112.052,277.831 109.800 C 274.244 106.452,273.965 106.238,274.256 107.053 M153.800 157.209 C 152.700 157.400,149.058 157.716,145.707 157.910 C 140.953 158.186,139.452 158.410,138.881 158.927 C 137.792 159.912,136.185 160.361,132.383 160.742 C 129.559 161.024,128.777 161.259,127.874 162.097 C 127.272 162.654,125.938 163.322,124.910 163.581 C 123.881 163.840,122.621 164.470,122.110 164.981 C 121.599 165.492,120.341 166.121,119.315 166.380 C 118.289 166.638,116.867 167.361,116.154 167.986 C 115.442 168.612,114.334 169.239,113.691 169.380 C 113.049 169.521,112.130 170.168,111.650 170.818 C 111.169 171.468,110.522 172.000,110.212 172.000 C 109.902 172.000,108.844 172.696,107.861 173.548 C 106.877 174.399,105.628 175.207,105.084 175.343 C 104.540 175.480,104.001 175.952,103.886 176.392 C 103.771 176.833,103.129 177.508,102.459 177.892 C 101.789 178.276,101.055 179.001,100.827 179.501 C 100.598 180.002,100.002 180.598,99.501 180.827 C 99.001 181.055,98.276 181.789,97.892 182.459 C 97.508 183.129,96.846 183.767,96.422 183.878 C 95.997 183.989,95.466 184.608,95.241 185.254 C 94.836 186.416,93.011 188.803,90.500 191.454 C 89.785 192.209,89.200 193.149,89.200 193.544 C 89.200 193.938,88.744 194.689,88.187 195.212 C 87.631 195.735,86.895 197.127,86.552 198.306 C 86.115 199.810,85.649 200.577,84.991 200.877 C 84.318 201.183,83.974 201.769,83.776 202.945 C 83.584 204.079,83.082 204.966,82.149 205.821 C 81.066 206.813,80.797 207.366,80.782 208.628 C 80.762 210.482,79.945 212.956,79.014 213.985 C 78.650 214.387,78.187 215.879,77.986 217.300 C 77.537 220.464,77.302 221.154,76.281 222.289 C 75.645 222.996,75.412 224.057,75.142 227.489 C 74.955 229.860,74.622 232.895,74.401 234.233 C 74.181 235.571,74.000 237.422,74.000 238.346 C 74.000 239.270,73.730 240.672,73.400 241.462 C 72.580 243.424,72.537 253.684,73.346 254.355 C 73.902 254.817,73.997 255.481,74.943 265.581 C 75.278 269.153,75.662 271.421,75.947 271.516 C 76.720 271.773,77.216 273.076,77.794 276.368 C 78.197 278.658,78.606 279.769,79.301 280.465 C 79.998 281.162,80.398 282.252,80.783 284.500 C 81.174 286.786,81.491 287.638,82.011 287.804 C 82.412 287.931,83.092 289.041,83.600 290.400 C 84.130 291.817,84.783 292.868,85.219 293.006 C 85.621 293.134,86.163 293.905,86.424 294.719 C 86.684 295.534,87.314 296.650,87.825 297.200 C 88.335 297.750,89.078 298.923,89.476 299.807 C 90.950 303.082,101.647 316.086,102.316 315.417 C 102.437 315.296,102.158 314.793,101.694 314.298 C 100.780 313.323,99.435 311.515,97.753 309.000 C 97.164 308.120,96.172 306.812,95.547 306.093 C 94.923 305.374,94.297 304.294,94.157 303.693 C 94.017 303.092,93.400 301.790,92.785 300.800 C 92.170 299.810,91.464 298.231,91.216 297.292 C 90.968 296.352,90.341 294.960,89.824 294.197 C 89.306 293.434,88.575 291.429,88.200 289.742 C 87.824 288.054,87.154 285.847,86.711 284.837 C 86.267 283.826,85.754 281.445,85.570 279.545 C 85.385 277.644,84.867 274.685,84.417 272.969 C 83.704 270.245,83.600 268.632,83.600 260.239 C 83.600 250.168,83.489 251.228,86.033 237.000 C 86.269 235.680,86.793 233.846,87.198 232.925 C 87.602 232.004,88.149 230.204,88.413 228.925 C 88.677 227.646,89.304 225.787,89.806 224.793 C 90.308 223.800,90.917 222.249,91.160 221.348 C 91.403 220.447,92.022 219.089,92.537 218.330 C 93.052 217.572,93.764 216.097,94.120 215.053 C 94.737 213.243,95.934 211.098,97.897 208.285 C 98.391 207.578,99.115 206.351,99.507 205.558 C 100.257 204.041,100.875 203.228,104.909 198.449 C 106.279 196.826,107.940 194.815,108.600 193.981 C 109.260 193.146,110.700 191.745,111.800 190.866 C 112.900 189.988,114.700 188.453,115.800 187.456 C 116.900 186.459,118.430 185.089,119.200 184.411 C 120.975 182.849,126.006 179.600,126.651 179.600 C 126.919 179.600,127.649 179.171,128.273 178.646 C 128.896 178.121,130.096 177.403,130.939 177.051 C 131.782 176.699,133.001 175.966,133.648 175.421 C 134.294 174.877,135.493 174.315,136.312 174.172 C 137.130 174.028,138.790 173.487,140.000 172.969 C 141.210 172.451,143.730 171.651,145.600 171.192 C 147.470 170.732,149.900 170.026,151.000 169.621 C 153.473 168.713,164.454 167.827,170.310 168.063 C 173.896 168.208,174.385 168.151,174.148 167.615 C 173.998 167.277,173.796 165.110,173.699 162.800 C 173.601 160.490,173.361 158.431,173.164 158.224 C 172.391 157.409,157.219 156.613,153.800 157.209"/><path id="path3" fill="transparent" fill-rule="evenodd" stroke="none" d="M0.000 200.000 L 0.000 400.000 200.000 400.000 L 400.000 400.000 400.000 200.000 L 400.000 0.000 200.000 0.000 L 0.000 0.000 0.000 200.000 M247.774 50.231 C 248.877 51.334,249.148 52.185,249.426 55.431 C 249.907 61.019,251.612 62.937,255.827 62.629 C 259.856 62.335,260.210 62.660,260.541 66.972 C 260.685 68.849,261.161 71.873,261.599 73.692 C 262.036 75.511,262.744 78.710,263.172 80.800 C 264.095 85.306,266.439 92.365,267.524 93.906 C 267.948 94.508,268.427 95.450,268.589 96.000 C 269.161 97.942,271.551 101.823,273.344 103.720 C 274.342 104.776,275.270 105.991,275.406 106.419 C 275.542 106.848,276.093 107.309,276.631 107.444 C 277.169 107.579,277.950 108.164,278.367 108.744 C 278.785 109.325,279.818 110.150,280.663 110.578 C 281.508 111.005,282.740 111.837,283.400 112.425 C 284.060 113.014,285.485 113.788,286.567 114.146 C 287.649 114.504,288.819 115.045,289.167 115.348 C 289.918 116.002,291.913 116.639,294.400 117.020 C 295.390 117.171,296.946 117.730,297.858 118.261 C 299.027 118.942,300.559 119.340,303.058 119.611 C 315.783 120.995,317.436 121.810,317.257 126.610 C 317.019 133.016,317.983 133.985,324.611 133.997 C 325.778 133.999,326.995 134.261,327.511 134.623 L 328.400 135.245 328.400 158.543 C 328.400 176.129,328.282 181.958,327.920 182.320 C 326.968 183.272,316.819 182.663,312.800 181.413 C 311.810 181.105,309.029 180.554,306.621 180.189 C 304.212 179.824,301.403 179.195,300.379 178.792 C 299.355 178.388,296.960 177.688,295.056 177.236 C 293.153 176.784,290.921 176.077,290.098 175.666 C 289.274 175.255,287.751 174.711,286.714 174.457 C 283.667 173.712,271.885 167.497,268.000 164.586 C 264.135 161.690,261.584 160.316,260.988 160.810 C 260.477 161.234,260.400 167.656,260.396 210.149 C 260.393 259.117,260.166 269.374,258.974 274.400 C 258.635 275.830,258.163 277.900,257.925 279.000 C 257.687 280.100,257.057 282.620,256.525 284.600 C 255.992 286.580,255.191 289.634,254.743 291.387 C 254.296 293.140,253.579 295.068,253.149 295.672 C 252.719 296.275,252.022 297.773,251.600 299.000 C 251.178 300.227,250.490 301.719,250.072 302.315 C 249.653 302.912,249.095 304.066,248.831 304.880 C 248.567 305.695,247.910 307.010,247.372 307.804 C 246.833 308.597,246.029 309.911,245.585 310.723 C 245.141 311.535,243.982 313.280,243.008 314.600 C 242.035 315.920,240.954 317.498,240.605 318.107 C 238.890 321.107,226.108 333.483,223.294 334.870 C 221.809 335.601,219.967 336.807,217.941 338.374 C 217.358 338.825,216.032 339.558,214.995 340.002 C 213.957 340.447,212.634 341.143,212.054 341.549 C 211.474 341.955,210.010 342.605,208.800 342.993 C 207.590 343.381,206.060 344.014,205.400 344.399 C 204.740 344.784,202.757 345.383,200.993 345.729 C 199.229 346.076,196.799 346.809,195.593 347.358 C 193.379 348.367,189.878 348.795,178.400 349.460 C 172.634 349.795,157.056 348.584,154.150 347.576 C 152.857 347.128,150.478 346.505,148.862 346.192 C 147.247 345.880,144.968 345.186,143.800 344.651 C 142.631 344.116,140.627 343.374,139.346 343.002 C 138.066 342.629,136.553 341.994,135.986 341.590 C 135.418 341.186,134.065 340.513,132.977 340.095 C 131.890 339.677,130.300 338.854,129.444 338.267 C 128.588 337.680,127.678 337.200,127.422 337.200 C 127.165 337.200,126.335 336.737,125.578 336.172 C 124.820 335.607,123.596 334.888,122.858 334.575 C 121.526 334.010,120.005 332.901,117.404 330.600 C 116.658 329.940,115.221 328.770,114.209 328.000 C 110.160 324.916,107.607 322.653,107.383 321.945 C 107.253 321.535,106.876 321.200,106.547 321.200 C 105.875 321.200,101.600 317.084,101.600 316.436 C 101.600 316.208,101.063 315.743,100.406 315.403 C 99.749 315.063,99.110 314.382,98.987 313.889 C 98.863 313.396,98.227 312.686,97.574 312.311 C 96.921 311.936,96.263 311.308,96.113 310.915 C 95.963 310.522,95.291 309.644,94.620 308.964 C 92.061 306.371,89.017 302.789,88.462 301.717 C 88.144 301.102,87.435 300.061,86.886 299.403 C 86.337 298.745,85.560 297.440,85.158 296.503 C 84.757 295.566,84.240 294.800,84.009 294.800 C 83.779 294.800,83.171 293.855,82.660 292.700 C 82.148 291.545,81.428 290.351,81.061 290.048 C 80.693 289.744,80.101 288.484,79.746 287.248 C 79.390 286.011,78.679 284.276,78.165 283.391 C 77.651 282.506,77.024 280.796,76.772 279.591 C 76.519 278.386,75.959 276.817,75.527 276.105 C 75.095 275.393,74.394 272.873,73.971 270.505 C 73.547 268.137,73.027 265.750,72.816 265.200 C 71.087 260.704,70.705 236.749,72.287 232.000 C 72.763 230.570,73.365 227.780,73.623 225.800 C 73.927 223.473,74.501 221.325,75.247 219.725 C 75.881 218.364,76.400 217.007,76.400 216.709 C 76.400 215.500,77.676 211.378,78.246 210.749 C 78.582 210.378,79.129 209.031,79.462 207.755 C 79.796 206.479,80.487 204.936,81.000 204.327 C 81.512 203.719,82.148 202.541,82.414 201.710 C 82.679 200.880,83.298 199.750,83.788 199.200 C 84.279 198.650,84.992 197.390,85.372 196.400 C 85.753 195.410,86.389 194.240,86.785 193.800 C 87.182 193.360,87.822 192.370,88.208 191.600 C 88.593 190.830,89.534 189.480,90.298 188.600 C 91.061 187.720,92.162 186.407,92.743 185.682 C 97.562 179.670,108.566 169.911,112.642 168.034 C 113.545 167.618,114.388 167.009,114.514 166.681 C 114.640 166.352,115.646 165.783,116.749 165.417 C 117.852 165.051,119.203 164.398,119.751 163.967 C 120.299 163.536,121.525 162.909,122.474 162.575 C 123.423 162.241,124.830 161.537,125.600 161.011 C 126.370 160.485,128.168 159.846,129.595 159.592 C 131.022 159.338,133.234 158.691,134.511 158.153 C 135.870 157.581,138.656 156.936,141.227 156.596 C 143.644 156.278,145.979 155.825,146.417 155.591 C 148.576 154.436,163.131 154.046,168.200 155.007 C 174.643 156.230,174.653 156.241,174.933 162.400 C 175.198 168.221,174.872 167.850,180.021 168.184 C 186.720 168.618,185.996 165.432,186.017 194.568 C 186.033 215.634,185.949 219.422,185.458 219.913 C 184.991 220.381,183.371 220.482,176.940 220.445 C 172.573 220.420,168.370 220.559,167.600 220.755 C 161.571 222.283,156.908 223.754,155.969 224.422 C 155.355 224.859,154.134 225.471,153.255 225.781 C 150.245 226.843,141.575 234.917,140.162 237.974 C 139.799 238.758,139.095 239.850,138.596 240.400 C 138.097 240.950,137.386 242.460,137.017 243.756 C 136.647 245.052,136.084 246.511,135.764 246.998 C 133.126 251.025,133.415 269.307,136.208 275.075 C 136.973 276.657,137.600 278.068,137.600 278.211 C 137.600 279.036,141.519 282.138,143.188 282.634 C 144.222 282.941,145.485 283.554,145.995 283.996 C 146.505 284.438,147.030 284.803,147.161 284.807 C 147.293 284.811,149.110 285.105,151.200 285.460 C 159.534 286.876,171.133 286.143,174.634 283.979 C 175.347 283.538,176.825 282.912,177.918 282.587 C 179.010 282.263,180.139 281.714,180.427 281.368 C 180.714 281.021,181.771 280.319,182.775 279.808 C 183.779 279.297,185.036 278.411,185.570 277.840 C 186.103 277.268,186.733 276.796,186.970 276.791 C 187.206 276.787,188.144 275.932,189.053 274.891 C 189.961 273.851,191.356 272.258,192.153 271.352 C 192.949 270.445,193.600 269.527,193.600 269.312 C 193.600 269.096,194.168 268.136,194.862 267.178 C 196.533 264.871,198.638 259.327,199.258 255.600 C 199.643 253.285,199.807 229.714,199.978 152.400 C 200.219 43.447,200.039 50.759,202.509 50.045 C 204.989 49.329,247.044 49.501,247.774 50.231"/><path id="path4" fill="#8cd4dc" fill-rule="evenodd" stroke="none" d="M202.509 50.045 C 200.039 50.759,200.219 43.447,199.978 152.400 C 199.807 229.714,199.643 253.285,199.258 255.600 C 198.638 259.327,196.533 264.871,194.862 267.178 C 194.168 268.136,193.600 269.096,193.600 269.312 C 193.600 269.527,192.949 270.445,192.153 271.352 C 191.356 272.258,189.961 273.851,189.053 274.891 C 188.144 275.932,187.206 276.787,186.970 276.791 C 186.733 276.796,186.103 277.268,185.570 277.840 C 185.036 278.411,183.779 279.297,182.775 279.808 C 181.771 280.319,180.714 281.021,180.427 281.368 C 180.139 281.714,179.010 282.263,177.918 282.587 C 176.825 282.912,175.347 283.538,174.634 283.979 C 171.133 286.143,159.534 286.876,151.200 285.460 C 149.110 285.105,147.293 284.811,147.161 284.807 C 147.030 284.803,146.505 284.438,145.995 283.996 C 145.485 283.554,144.222 282.941,143.188 282.634 C 141.024 281.991,137.794 279.111,137.378 277.453 C 137.231 276.870,136.969 276.304,136.795 276.197 C 136.354 275.924,137.452 279.457,138.084 280.341 C 138.845 281.408,141.438 283.600,141.939 283.600 C 142.177 283.600,142.980 284.134,143.723 284.786 C 145.417 286.273,146.786 286.800,148.958 286.800 C 149.985 286.800,151.448 287.197,152.632 287.798 C 155.613 289.311,165.319 289.312,168.162 287.800 C 169.196 287.250,170.564 286.800,171.201 286.800 C 173.451 286.800,176.439 285.923,177.318 285.005 C 177.803 284.499,179.231 283.792,180.490 283.434 C 181.894 283.035,182.945 282.477,183.205 281.991 C 183.438 281.555,184.235 280.945,184.976 280.636 C 185.717 280.326,186.439 279.706,186.582 279.257 C 186.724 278.808,187.237 278.319,187.720 278.170 C 189.037 277.764,194.253 272.327,194.968 270.615 C 195.311 269.794,196.037 268.771,196.581 268.343 C 197.174 267.877,197.670 266.972,197.820 266.083 C 198.225 263.678,198.423 263.200,199.013 263.200 C 200.003 263.200,200.397 261.748,200.819 256.557 C 201.046 253.760,201.356 251.276,201.507 251.036 C 202.402 249.616,202.530 238.350,202.663 149.312 C 202.804 54.263,202.818 52.818,203.583 52.409 C 204.101 52.132,211.557 52.028,225.880 52.097 L 247.400 52.200 247.710 55.200 C 248.373 61.632,248.304 61.406,249.828 62.133 C 251.824 63.085,253.333 63.055,252.189 62.087 C 250.537 60.687,249.706 58.687,249.426 55.431 C 249.148 52.185,248.877 51.334,247.774 50.231 C 247.044 49.501,204.989 49.329,202.509 50.045 M271.607 102.373 C 272.433 103.983,274.933 107.374,275.588 107.772 C 275.925 107.977,276.953 108.877,277.873 109.772 C 280.114 111.953,285.317 115.764,288.046 117.225 C 288.527 117.482,290.104 117.839,291.551 118.019 C 292.998 118.198,294.247 118.541,294.327 118.781 C 294.594 119.581,296.711 120.386,300.072 120.964 C 301.902 121.279,304.162 121.819,305.093 122.164 C 306.025 122.509,307.825 122.891,309.093 123.013 C 311.570 123.251,316.000 124.032,316.000 124.230 C 316.000 124.296,315.719 125.563,315.375 127.045 C 314.823 129.425,314.819 129.779,315.345 130.073 C 315.672 130.256,316.141 131.016,316.387 131.761 C 316.640 132.527,317.174 133.205,317.617 133.320 C 318.555 133.566,318.542 133.702,317.779 131.550 C 317.373 130.406,317.194 128.724,317.261 126.693 C 317.423 121.794,315.833 121.001,303.058 119.611 C 300.559 119.340,299.027 118.942,297.858 118.261 C 296.946 117.730,295.390 117.171,294.400 117.020 C 291.913 116.639,289.918 116.002,289.167 115.348 C 288.819 115.045,287.649 114.504,286.567 114.146 C 285.485 113.788,284.060 113.014,283.400 112.425 C 282.740 111.837,281.508 111.005,280.663 110.578 C 279.818 110.150,278.785 109.325,278.367 108.744 C 277.950 108.164,277.169 107.579,276.631 107.444 C 276.093 107.309,275.543 106.850,275.408 106.424 C 275.273 105.999,274.250 104.694,273.135 103.525 C 272.020 102.356,271.333 101.838,271.607 102.373 M150.742 154.819 C 148.839 154.989,146.909 155.327,146.452 155.572 C 145.995 155.817,143.644 156.278,141.227 156.596 C 138.656 156.936,135.870 157.581,134.511 158.153 C 133.234 158.691,131.022 159.338,129.595 159.592 C 128.168 159.846,126.370 160.485,125.600 161.011 C 124.830 161.537,123.423 162.241,122.474 162.575 C 121.525 162.909,120.299 163.536,119.751 163.967 C 119.203 164.398,117.852 165.051,116.749 165.417 C 115.646 165.783,114.640 166.352,114.514 166.681 C 114.388 167.009,113.545 167.618,112.642 168.034 C 110.982 168.799,108.098 170.740,105.682 172.720 C 103.903 174.177,94.065 184.033,92.743 185.682 C 92.162 186.407,91.061 187.720,90.298 188.600 C 89.534 189.480,88.593 190.830,88.208 191.600 C 87.822 192.370,87.182 193.360,86.785 193.800 C 86.389 194.240,85.753 195.410,85.372 196.400 C 84.992 197.390,84.279 198.650,83.788 199.200 C 83.298 199.750,82.679 200.880,82.414 201.710 C 82.148 202.541,81.512 203.719,81.000 204.327 C 80.487 204.936,79.796 206.479,79.462 207.755 C 79.129 209.031,78.582 210.378,78.246 210.749 C 77.676 211.378,76.400 215.500,76.400 216.709 C 76.400 217.007,75.881 218.364,75.247 219.725 C 74.501 221.325,73.927 223.473,73.623 225.800 C 73.365 227.780,72.763 230.570,72.287 232.000 C 70.705 236.749,71.087 260.704,72.816 265.200 C 73.027 265.750,73.547 268.137,73.971 270.505 C 74.394 272.873,75.095 275.393,75.527 276.105 C 75.959 276.817,76.519 278.386,76.772 279.591 C 77.024 280.796,77.651 282.506,78.165 283.391 C 78.679 284.276,79.390 286.011,79.746 287.248 C 80.101 288.484,80.693 289.744,81.061 290.048 C 81.428 290.351,82.148 291.545,82.660 292.700 C 83.171 293.855,83.779 294.800,84.009 294.800 C 84.240 294.800,84.757 295.566,85.158 296.503 C 85.560 297.440,86.337 298.745,86.886 299.403 C 87.435 300.061,88.144 301.102,88.462 301.717 C 89.017 302.789,92.061 306.371,94.620 308.964 C 95.291 309.644,95.963 310.522,96.113 310.915 C 96.263 311.308,96.921 311.936,97.574 312.311 C 98.227 312.686,98.863 313.396,98.987 313.889 C 99.110 314.382,99.749 315.063,100.406 315.403 C 101.063 315.743,101.600 316.208,101.600 316.436 C 101.600 317.018,105.842 321.200,106.432 321.200 C 106.698 321.200,105.980 320.165,104.836 318.900 C 103.692 317.635,102.038 315.790,101.161 314.800 C 100.284 313.810,98.988 312.351,98.283 311.558 C 97.577 310.766,96.241 309.146,95.313 307.958 C 94.386 306.771,92.846 304.810,91.891 303.600 C 90.936 302.390,89.903 300.780,89.596 300.022 C 89.289 299.264,88.560 298.094,87.976 297.422 C 87.392 296.750,86.698 295.534,86.433 294.719 C 86.167 293.905,85.621 293.134,85.219 293.006 C 84.783 292.868,84.130 291.817,83.600 290.400 C 83.092 289.041,82.412 287.931,82.011 287.804 C 81.491 287.638,81.174 286.786,80.783 284.500 C 80.398 282.252,79.998 281.162,79.301 280.465 C 78.606 279.769,78.197 278.658,77.794 276.368 C 77.216 273.076,76.720 271.773,75.947 271.516 C 75.662 271.421,75.278 269.153,74.943 265.581 C 73.997 255.481,73.902 254.817,73.346 254.355 C 72.537 253.684,72.580 243.424,73.400 241.462 C 73.730 240.672,74.000 239.270,74.000 238.346 C 74.000 237.422,74.181 235.571,74.401 234.233 C 74.622 232.895,74.955 229.860,75.142 227.489 C 75.412 224.057,75.645 222.996,76.281 222.289 C 77.302 221.154,77.537 220.464,77.986 217.300 C 78.187 215.879,78.650 214.387,79.014 213.985 C 79.945 212.956,80.762 210.482,80.782 208.628 C 80.797 207.366,81.066 206.813,82.149 205.821 C 83.082 204.966,83.584 204.079,83.776 202.945 C 83.974 201.769,84.318 201.183,84.991 200.877 C 85.649 200.577,86.115 199.810,86.552 198.306 C 86.895 197.127,87.631 195.735,88.187 195.212 C 88.744 194.689,89.200 193.938,89.200 193.544 C 89.200 193.149,89.785 192.209,90.500 191.454 C 93.011 188.803,94.836 186.416,95.241 185.254 C 95.466 184.608,95.997 183.989,96.422 183.878 C 96.846 183.767,97.508 183.129,97.892 182.459 C 98.276 181.789,99.001 181.055,99.501 180.827 C 100.002 180.598,100.598 180.002,100.827 179.501 C 101.055 179.001,101.789 178.276,102.459 177.892 C 103.129 177.508,103.771 176.833,103.886 176.392 C 104.001 175.952,104.540 175.480,105.084 175.343 C 105.628 175.207,106.877 174.399,107.861 173.548 C 108.844 172.696,109.902 172.000,110.212 172.000 C 110.522 172.000,111.169 171.468,111.650 170.818 C 112.130 170.168,113.049 169.521,113.691 169.380 C 114.334 169.239,115.442 168.612,116.154 167.986 C 116.867 167.361,118.289 166.638,119.315 166.380 C 120.341 166.121,121.599 165.492,122.110 164.981 C 122.621 164.470,123.881 163.840,124.910 163.581 C 125.938 163.322,127.272 162.654,127.874 162.097 C 128.777 161.259,129.559 161.024,132.383 160.742 C 136.180 160.361,137.793 159.912,138.875 158.932 C 139.436 158.424,140.949 158.194,145.501 157.922 C 148.745 157.728,152.847 157.373,154.616 157.133 C 157.725 156.712,161.437 156.809,169.015 157.512 C 173.765 157.953,173.593 157.781,173.640 162.124 C 173.687 166.482,173.978 167.746,174.976 167.938 C 175.557 168.050,175.653 167.921,175.421 167.341 C 175.258 166.933,175.038 164.710,174.933 162.400 C 174.828 160.090,174.547 157.800,174.309 157.311 C 173.156 154.942,162.280 153.792,150.742 154.819 M107.564 322.333 C 107.780 322.736,108.274 323.321,108.663 323.633 C 109.164 324.035,109.104 323.822,108.457 322.900 C 107.469 321.491,106.931 321.149,107.564 322.333"/></g></svg>